<?xml version="1.0" encoding="iso-8859-1"?>
<!-- Uploaded to: SVG Repo, www.svgrepo.com, Generator: SVG Repo Mixer Tools -->
<svg height="800px" width="800px" version="1.1" id="Layer_1" xmlns="http://www.w3.org/2000/svg" xmlns:xlink="http://www.w3.org/1999/xlink" 
	 viewBox="0 0 511.999 511.999" xml:space="preserve">
<path style="fill:#E0E0E2;" d="M425.27,86.729c0.87-22.436-7.167-45.152-24.294-62.279c-32.6-32.6-85.456-32.6-118.056,0
	c-31.272,31.272-32.46,81.131-3.736,113.922l-140.811,140.81c-32.791-28.723-82.651-27.534-113.922,3.736
	c-32.6,32.6-32.6,85.456,0,118.056c17.129,17.128,39.844,25.165,62.279,24.294c-0.87,22.436,7.167,45.152,24.294,62.279
	c32.601,32.6,85.456,32.6,118.056,0c31.272-31.272,32.461-81.132,3.736-113.922l140.81-140.81
	c32.791,28.723,82.651,27.534,113.922-3.736c32.6-32.6,32.6-85.456,0-118.056C470.421,93.896,447.706,85.86,425.27,86.729z"/>
<path style="fill:#C6C5CA;" d="M487.55,111.025C470.421,93.896,447.706,85.86,425.27,86.73L86.729,425.27
	c-0.87,22.436,7.167,45.152,24.294,62.279c32.601,32.6,85.456,32.6,118.056,0c31.272-31.272,32.461-81.132,3.736-113.922
	l140.81-140.81c32.791,28.723,82.651,27.534,113.922-3.736C520.149,196.48,520.149,143.625,487.55,111.025z"/>
</svg>