<?xml version="1.0" encoding="iso-8859-1"?>
<!-- Uploaded to: SVG Repo, www.svgrepo.com, Generator: SVG Repo Mixer Tools -->
<svg height="800px" width="800px" version="1.1" id="Layer_1" xmlns="http://www.w3.org/2000/svg" xmlns:xlink="http://www.w3.org/1999/xlink" 
	 viewBox="0 0 512.002 512.002" xml:space="preserve">
<path style="fill:#F1F2F2;" d="M256.001,454.132c-122.231,0-224.073-82.395-255.302-193.085c-0.932-3.299-0.932-6.792,0-10.093
	c31.15-110.413,132.79-193.085,255.302-193.085c122.237,0,224.077,82.404,255.302,193.085c0.93,3.299,0.93,6.792,0,10.093
	C480.155,371.459,378.511,454.132,256.001,454.132z"/>
<path style="fill:#E6E7E8;" d="M511.304,250.954C480.155,140.542,378.512,57.869,256.001,57.869l0,0v396.263l0,0
	c122.229,0,224.075-82.397,255.302-193.085C512.234,257.748,512.234,254.254,511.304,250.954z"/>
<path style="fill:#C7E9F4;" d="M256.001,387.117c-72.299,0-131.117-58.819-131.117-131.117s58.819-131.117,131.117-131.117
	s131.117,58.819,131.117,131.117S328.3,387.117,256.001,387.117z"/>
<g>
	<path style="fill:#80D0E1;" d="M256.001,124.884L256.001,124.884v262.232l0,0c72.299,0,131.117-58.819,131.117-131.117
		S328.3,124.884,256.001,124.884z"/>
	<path style="fill:#80D0E1;" d="M256.001,322.615c-36.732,0-66.615-29.883-66.615-66.615s29.883-66.615,66.615-66.615
		c6.612,0,13.129,0.964,19.37,2.867c6.835,2.084,11.869,7.901,12.951,14.966c1.287,8.405,8.056,15.175,16.461,16.462
		c7.062,1.08,12.88,6.116,14.964,12.949c1.903,6.239,2.867,12.756,2.867,19.373C322.616,292.733,292.733,322.615,256.001,322.615z"
		/>
</g>
<path style="fill:#51B3DA;" d="M319.748,236.628c-2.085-6.834-7.902-11.868-14.964-12.949c-8.405-1.287-15.174-8.057-16.461-16.462
	c-1.082-7.063-6.116-12.882-12.951-14.966c-6.241-1.903-12.758-2.867-19.37-2.867l0,0v133.229l0,0
	c36.731,0,66.615-29.883,66.615-66.615C322.616,249.386,321.652,242.868,319.748,236.628z"/>
<path style="fill:#E6E7E8;" d="M261.391,211.331c-4.392-28.444,17.667-54.138,46.437-54.138c25.906,0,46.982,21.076,46.982,46.983
	C354.809,261.633,270.194,268.843,261.391,211.331z"/>
</svg>